<mxfile host="app.diagrams.net" agent="Mozilla/5.0 (Windows NT 10.0; Win64; x64) AppleWebKit/537.36 (KHTML, like Gecko) Chrome/123.0.0.0 Safari/537.36" version="24.7.15">
  <diagram name="第 1 页" id="1I69XflQMtYXcPyUPTQI">
    <mxGraphModel dx="2501" dy="1941" grid="1" gridSize="10" guides="1" tooltips="1" connect="1" arrows="1" fold="1" page="1" pageScale="1" pageWidth="827" pageHeight="1169" math="0" shadow="0">
      <root>
        <mxCell id="0" />
        <mxCell id="1" parent="0" />
        <mxCell id="3P8sc-XmkoWIavLkZpjN-31" value="" style="rounded=0;whiteSpace=wrap;html=1;" vertex="1" parent="1">
          <mxGeometry x="860" y="260" width="190" height="280" as="geometry" />
        </mxCell>
        <mxCell id="3P8sc-XmkoWIavLkZpjN-6" style="edgeStyle=orthogonalEdgeStyle;rounded=0;orthogonalLoop=1;jettySize=auto;html=1;exitX=0.5;exitY=1;exitDx=0;exitDy=0;entryX=0.5;entryY=0;entryDx=0;entryDy=0;" edge="1" parent="1" source="3P8sc-XmkoWIavLkZpjN-1" target="3P8sc-XmkoWIavLkZpjN-5">
          <mxGeometry relative="1" as="geometry" />
        </mxCell>
        <mxCell id="3P8sc-XmkoWIavLkZpjN-1" value="发布实验配置" style="rounded=0;whiteSpace=wrap;html=1;" vertex="1" parent="1">
          <mxGeometry x="-50" y="-110" width="120" height="60" as="geometry" />
        </mxCell>
        <mxCell id="3P8sc-XmkoWIavLkZpjN-2" value="同步策略/云控服务" style="rounded=0;whiteSpace=wrap;html=1;" vertex="1" parent="1">
          <mxGeometry x="-50" y="330" width="120" height="60" as="geometry" />
        </mxCell>
        <mxCell id="3P8sc-XmkoWIavLkZpjN-10" style="edgeStyle=orthogonalEdgeStyle;rounded=0;orthogonalLoop=1;jettySize=auto;html=1;entryX=0.5;entryY=0;entryDx=0;entryDy=0;" edge="1" parent="1" source="3P8sc-XmkoWIavLkZpjN-3" target="3P8sc-XmkoWIavLkZpjN-9">
          <mxGeometry relative="1" as="geometry" />
        </mxCell>
        <mxCell id="3P8sc-XmkoWIavLkZpjN-13" value="是" style="edgeLabel;html=1;align=center;verticalAlign=middle;resizable=0;points=[];" vertex="1" connectable="0" parent="3P8sc-XmkoWIavLkZpjN-10">
          <mxGeometry x="0.28" y="-1" relative="1" as="geometry">
            <mxPoint as="offset" />
          </mxGeometry>
        </mxCell>
        <mxCell id="3P8sc-XmkoWIavLkZpjN-12" style="edgeStyle=orthogonalEdgeStyle;rounded=0;orthogonalLoop=1;jettySize=auto;html=1;exitX=0;exitY=0.5;exitDx=0;exitDy=0;entryX=0;entryY=0.5;entryDx=0;entryDy=0;" edge="1" parent="1" source="3P8sc-XmkoWIavLkZpjN-3" target="3P8sc-XmkoWIavLkZpjN-2">
          <mxGeometry relative="1" as="geometry">
            <Array as="points">
              <mxPoint x="-130" y="150" />
              <mxPoint x="-130" y="360" />
            </Array>
          </mxGeometry>
        </mxCell>
        <mxCell id="3P8sc-XmkoWIavLkZpjN-14" value="否" style="edgeLabel;html=1;align=center;verticalAlign=middle;resizable=0;points=[];" vertex="1" connectable="0" parent="3P8sc-XmkoWIavLkZpjN-12">
          <mxGeometry x="-0.0575" y="-2" relative="1" as="geometry">
            <mxPoint as="offset" />
          </mxGeometry>
        </mxCell>
        <mxCell id="3P8sc-XmkoWIavLkZpjN-3" value="是否自动续期实验" style="rhombus;whiteSpace=wrap;html=1;" vertex="1" parent="1">
          <mxGeometry x="-55" y="110" width="130" height="80" as="geometry" />
        </mxCell>
        <mxCell id="3P8sc-XmkoWIavLkZpjN-7" style="edgeStyle=orthogonalEdgeStyle;rounded=0;orthogonalLoop=1;jettySize=auto;html=1;entryX=0.5;entryY=0;entryDx=0;entryDy=0;" edge="1" parent="1" source="3P8sc-XmkoWIavLkZpjN-5" target="3P8sc-XmkoWIavLkZpjN-3">
          <mxGeometry relative="1" as="geometry" />
        </mxCell>
        <mxCell id="3P8sc-XmkoWIavLkZpjN-5" value="发布消息MQ消费" style="rounded=0;whiteSpace=wrap;html=1;" vertex="1" parent="1">
          <mxGeometry x="-50" y="10" width="120" height="60" as="geometry" />
        </mxCell>
        <mxCell id="3P8sc-XmkoWIavLkZpjN-11" style="edgeStyle=orthogonalEdgeStyle;rounded=0;orthogonalLoop=1;jettySize=auto;html=1;entryX=0.5;entryY=0;entryDx=0;entryDy=0;" edge="1" parent="1" source="3P8sc-XmkoWIavLkZpjN-9" target="3P8sc-XmkoWIavLkZpjN-2">
          <mxGeometry relative="1" as="geometry" />
        </mxCell>
        <mxCell id="3P8sc-XmkoWIavLkZpjN-9" value="修改结束时间为Long.MAX_VALUE" style="rounded=0;whiteSpace=wrap;html=1;" vertex="1" parent="1">
          <mxGeometry x="-50" y="230" width="120" height="60" as="geometry" />
        </mxCell>
        <mxCell id="3P8sc-XmkoWIavLkZpjN-17" style="edgeStyle=orthogonalEdgeStyle;rounded=0;orthogonalLoop=1;jettySize=auto;html=1;entryX=0.5;entryY=0;entryDx=0;entryDy=0;" edge="1" parent="1" source="3P8sc-XmkoWIavLkZpjN-15" target="3P8sc-XmkoWIavLkZpjN-16">
          <mxGeometry relative="1" as="geometry" />
        </mxCell>
        <mxCell id="3P8sc-XmkoWIavLkZpjN-15" value="发布实验配置" style="rounded=0;whiteSpace=wrap;html=1;" vertex="1" parent="1">
          <mxGeometry x="650" y="-60" width="120" height="60" as="geometry" />
        </mxCell>
        <mxCell id="3P8sc-XmkoWIavLkZpjN-19" style="edgeStyle=orthogonalEdgeStyle;rounded=0;orthogonalLoop=1;jettySize=auto;html=1;entryX=0.5;entryY=0;entryDx=0;entryDy=0;" edge="1" parent="1" source="3P8sc-XmkoWIavLkZpjN-16" target="3P8sc-XmkoWIavLkZpjN-18">
          <mxGeometry relative="1" as="geometry" />
        </mxCell>
        <mxCell id="3P8sc-XmkoWIavLkZpjN-32" value="是" style="edgeLabel;html=1;align=center;verticalAlign=middle;resizable=0;points=[];" vertex="1" connectable="0" parent="3P8sc-XmkoWIavLkZpjN-19">
          <mxGeometry x="-0.4" y="2" relative="1" as="geometry">
            <mxPoint x="-2" as="offset" />
          </mxGeometry>
        </mxCell>
        <mxCell id="3P8sc-XmkoWIavLkZpjN-16" value="是否自动续期实验" style="rhombus;whiteSpace=wrap;html=1;" vertex="1" parent="1">
          <mxGeometry x="645" y="30" width="130" height="80" as="geometry" />
        </mxCell>
        <mxCell id="3P8sc-XmkoWIavLkZpjN-21" style="edgeStyle=orthogonalEdgeStyle;rounded=0;orthogonalLoop=1;jettySize=auto;html=1;exitX=0.5;exitY=1;exitDx=0;exitDy=0;entryX=0.5;entryY=0;entryDx=0;entryDy=0;" edge="1" parent="1" source="3P8sc-XmkoWIavLkZpjN-18" target="3P8sc-XmkoWIavLkZpjN-23">
          <mxGeometry relative="1" as="geometry">
            <mxPoint x="710" y="270" as="targetPoint" />
          </mxGeometry>
        </mxCell>
        <mxCell id="3P8sc-XmkoWIavLkZpjN-18" value="redis zset添加延迟任务，score为是实验过期时间前24小时" style="rounded=0;whiteSpace=wrap;html=1;" vertex="1" parent="1">
          <mxGeometry x="650" y="150" width="120" height="60" as="geometry" />
        </mxCell>
        <mxCell id="3P8sc-XmkoWIavLkZpjN-59" style="edgeStyle=orthogonalEdgeStyle;rounded=0;orthogonalLoop=1;jettySize=auto;html=1;entryX=0.5;entryY=0;entryDx=0;entryDy=0;" edge="1" parent="1" source="3P8sc-XmkoWIavLkZpjN-23" target="3P8sc-XmkoWIavLkZpjN-44">
          <mxGeometry relative="1" as="geometry" />
        </mxCell>
        <mxCell id="3P8sc-XmkoWIavLkZpjN-23" value="定时任务:1分钟&lt;div&gt;redfs分布式加锁，扫描续期实验&lt;/div&gt;" style="shape=process;whiteSpace=wrap;html=1;backgroundOutline=1;" vertex="1" parent="1">
          <mxGeometry x="627.5" y="240" width="165" height="80" as="geometry" />
        </mxCell>
        <mxCell id="3P8sc-XmkoWIavLkZpjN-27" style="edgeStyle=orthogonalEdgeStyle;rounded=0;orthogonalLoop=1;jettySize=auto;html=1;" edge="1" parent="1" source="3P8sc-XmkoWIavLkZpjN-25" target="3P8sc-XmkoWIavLkZpjN-26">
          <mxGeometry relative="1" as="geometry" />
        </mxCell>
        <mxCell id="3P8sc-XmkoWIavLkZpjN-25" value="修改实验记录过期时间+90天" style="rounded=0;whiteSpace=wrap;html=1;" vertex="1" parent="1">
          <mxGeometry x="900" y="280" width="120" height="60" as="geometry" />
        </mxCell>
        <mxCell id="3P8sc-XmkoWIavLkZpjN-29" style="edgeStyle=orthogonalEdgeStyle;rounded=0;orthogonalLoop=1;jettySize=auto;html=1;entryX=0.5;entryY=0;entryDx=0;entryDy=0;" edge="1" parent="1" source="3P8sc-XmkoWIavLkZpjN-26" target="3P8sc-XmkoWIavLkZpjN-28">
          <mxGeometry relative="1" as="geometry" />
        </mxCell>
        <mxCell id="3P8sc-XmkoWIavLkZpjN-26" value="生成免发布实验版本数据" style="rounded=0;whiteSpace=wrap;html=1;" vertex="1" parent="1">
          <mxGeometry x="900" y="370" width="120" height="60" as="geometry" />
        </mxCell>
        <mxCell id="3P8sc-XmkoWIavLkZpjN-28" value="调用伽利略接口修改实验过期时间+90天" style="rounded=0;whiteSpace=wrap;html=1;" vertex="1" parent="1">
          <mxGeometry x="900" y="460" width="120" height="60" as="geometry" />
        </mxCell>
        <mxCell id="3P8sc-XmkoWIavLkZpjN-37" style="edgeStyle=orthogonalEdgeStyle;rounded=0;orthogonalLoop=1;jettySize=auto;html=1;entryX=1;entryY=0.5;entryDx=0;entryDy=0;" edge="1" parent="1" source="3P8sc-XmkoWIavLkZpjN-33" target="3P8sc-XmkoWIavLkZpjN-36">
          <mxGeometry relative="1" as="geometry" />
        </mxCell>
        <mxCell id="3P8sc-XmkoWIavLkZpjN-38" value="是" style="edgeLabel;html=1;align=center;verticalAlign=middle;resizable=0;points=[];" vertex="1" connectable="0" parent="3P8sc-XmkoWIavLkZpjN-37">
          <mxGeometry x="-0.2364" y="-1" relative="1" as="geometry">
            <mxPoint as="offset" />
          </mxGeometry>
        </mxCell>
        <mxCell id="3P8sc-XmkoWIavLkZpjN-40" style="edgeStyle=orthogonalEdgeStyle;rounded=0;orthogonalLoop=1;jettySize=auto;html=1;entryX=0.5;entryY=0;entryDx=0;entryDy=0;" edge="1" parent="1" source="3P8sc-XmkoWIavLkZpjN-33" target="3P8sc-XmkoWIavLkZpjN-42">
          <mxGeometry relative="1" as="geometry">
            <mxPoint x="710" y="610" as="targetPoint" />
          </mxGeometry>
        </mxCell>
        <mxCell id="3P8sc-XmkoWIavLkZpjN-41" value="否" style="edgeLabel;html=1;align=center;verticalAlign=middle;resizable=0;points=[];" vertex="1" connectable="0" parent="3P8sc-XmkoWIavLkZpjN-40">
          <mxGeometry x="-0.3" y="2" relative="1" as="geometry">
            <mxPoint x="-2" y="2" as="offset" />
          </mxGeometry>
        </mxCell>
        <mxCell id="3P8sc-XmkoWIavLkZpjN-33" value="是否续期成功" style="rhombus;whiteSpace=wrap;html=1;" vertex="1" parent="1">
          <mxGeometry x="645" y="450" width="130" height="80" as="geometry" />
        </mxCell>
        <mxCell id="3P8sc-XmkoWIavLkZpjN-63" style="edgeStyle=orthogonalEdgeStyle;rounded=0;orthogonalLoop=1;jettySize=auto;html=1;" edge="1" parent="1" source="3P8sc-XmkoWIavLkZpjN-36" target="3P8sc-XmkoWIavLkZpjN-62">
          <mxGeometry relative="1" as="geometry" />
        </mxCell>
        <mxCell id="3P8sc-XmkoWIavLkZpjN-36" value="redis zset更新score为延期后时间(+89天)" style="rounded=0;whiteSpace=wrap;html=1;" vertex="1" parent="1">
          <mxGeometry x="460" y="460" width="120" height="60" as="geometry" />
        </mxCell>
        <mxCell id="3P8sc-XmkoWIavLkZpjN-46" style="edgeStyle=orthogonalEdgeStyle;rounded=0;orthogonalLoop=1;jettySize=auto;html=1;" edge="1" parent="1" source="3P8sc-XmkoWIavLkZpjN-42" target="3P8sc-XmkoWIavLkZpjN-31">
          <mxGeometry relative="1" as="geometry" />
        </mxCell>
        <mxCell id="3P8sc-XmkoWIavLkZpjN-48" style="edgeStyle=orthogonalEdgeStyle;rounded=0;orthogonalLoop=1;jettySize=auto;html=1;exitX=0.5;exitY=1;exitDx=0;exitDy=0;entryX=0.5;entryY=0;entryDx=0;entryDy=0;" edge="1" parent="1" source="3P8sc-XmkoWIavLkZpjN-42" target="3P8sc-XmkoWIavLkZpjN-47">
          <mxGeometry relative="1" as="geometry" />
        </mxCell>
        <mxCell id="3P8sc-XmkoWIavLkZpjN-42" value="异步重试&lt;br&gt;重试策略遵循指数退避规则(初始间隔3s，系数为2)" style="shape=process;whiteSpace=wrap;html=1;backgroundOutline=1;" vertex="1" parent="1">
          <mxGeometry x="623.75" y="590" width="172" height="90" as="geometry" />
        </mxCell>
        <mxCell id="3P8sc-XmkoWIavLkZpjN-60" style="edgeStyle=orthogonalEdgeStyle;rounded=0;orthogonalLoop=1;jettySize=auto;html=1;" edge="1" parent="1" source="3P8sc-XmkoWIavLkZpjN-44" target="3P8sc-XmkoWIavLkZpjN-33">
          <mxGeometry relative="1" as="geometry" />
        </mxCell>
        <mxCell id="3P8sc-XmkoWIavLkZpjN-44" value="redis zset删除当前记录(避免处理慢，下一分钟定时任务重复处理)" style="rounded=0;whiteSpace=wrap;html=1;" vertex="1" parent="1">
          <mxGeometry x="645" y="360" width="130" height="60" as="geometry" />
        </mxCell>
        <mxCell id="3P8sc-XmkoWIavLkZpjN-49" style="edgeStyle=orthogonalEdgeStyle;rounded=0;orthogonalLoop=1;jettySize=auto;html=1;exitX=0;exitY=0.5;exitDx=0;exitDy=0;" edge="1" parent="1" source="3P8sc-XmkoWIavLkZpjN-47" target="3P8sc-XmkoWIavLkZpjN-36">
          <mxGeometry relative="1" as="geometry" />
        </mxCell>
        <mxCell id="3P8sc-XmkoWIavLkZpjN-50" value="是" style="edgeLabel;html=1;align=center;verticalAlign=middle;resizable=0;points=[];" vertex="1" connectable="0" parent="3P8sc-XmkoWIavLkZpjN-49">
          <mxGeometry x="0.4806" y="2" relative="1" as="geometry">
            <mxPoint as="offset" />
          </mxGeometry>
        </mxCell>
        <mxCell id="3P8sc-XmkoWIavLkZpjN-52" style="edgeStyle=orthogonalEdgeStyle;rounded=0;orthogonalLoop=1;jettySize=auto;html=1;exitX=0.5;exitY=1;exitDx=0;exitDy=0;" edge="1" parent="1" source="3P8sc-XmkoWIavLkZpjN-47" target="3P8sc-XmkoWIavLkZpjN-51">
          <mxGeometry relative="1" as="geometry" />
        </mxCell>
        <mxCell id="3P8sc-XmkoWIavLkZpjN-55" value="否" style="edgeLabel;html=1;align=center;verticalAlign=middle;resizable=0;points=[];" vertex="1" connectable="0" parent="3P8sc-XmkoWIavLkZpjN-52">
          <mxGeometry x="-0.403" y="-1" relative="1" as="geometry">
            <mxPoint y="2" as="offset" />
          </mxGeometry>
        </mxCell>
        <mxCell id="3P8sc-XmkoWIavLkZpjN-47" value="是否续期成功" style="rhombus;whiteSpace=wrap;html=1;" vertex="1" parent="1">
          <mxGeometry x="643.25" y="710" width="130" height="80" as="geometry" />
        </mxCell>
        <mxCell id="3P8sc-XmkoWIavLkZpjN-54" style="edgeStyle=orthogonalEdgeStyle;rounded=0;orthogonalLoop=1;jettySize=auto;html=1;exitX=0.5;exitY=1;exitDx=0;exitDy=0;" edge="1" parent="1" source="3P8sc-XmkoWIavLkZpjN-51" target="3P8sc-XmkoWIavLkZpjN-53">
          <mxGeometry relative="1" as="geometry" />
        </mxCell>
        <mxCell id="3P8sc-XmkoWIavLkZpjN-56" value="是" style="edgeLabel;html=1;align=center;verticalAlign=middle;resizable=0;points=[];" vertex="1" connectable="0" parent="3P8sc-XmkoWIavLkZpjN-54">
          <mxGeometry x="-0.2405" relative="1" as="geometry">
            <mxPoint as="offset" />
          </mxGeometry>
        </mxCell>
        <mxCell id="3P8sc-XmkoWIavLkZpjN-57" style="edgeStyle=orthogonalEdgeStyle;rounded=0;orthogonalLoop=1;jettySize=auto;html=1;entryX=1;entryY=1;entryDx=0;entryDy=0;" edge="1" parent="1" source="3P8sc-XmkoWIavLkZpjN-51" target="3P8sc-XmkoWIavLkZpjN-42">
          <mxGeometry relative="1" as="geometry">
            <Array as="points">
              <mxPoint x="796.25" y="863" />
              <mxPoint x="796.25" y="752" />
            </Array>
          </mxGeometry>
        </mxCell>
        <mxCell id="3P8sc-XmkoWIavLkZpjN-58" value="否" style="edgeLabel;html=1;align=center;verticalAlign=middle;resizable=0;points=[];" vertex="1" connectable="0" parent="3P8sc-XmkoWIavLkZpjN-57">
          <mxGeometry x="0.2117" y="-1" relative="1" as="geometry">
            <mxPoint y="1" as="offset" />
          </mxGeometry>
        </mxCell>
        <mxCell id="3P8sc-XmkoWIavLkZpjN-51" value="是否达到重试次数上限(10次，大约51分钟)" style="rhombus;whiteSpace=wrap;html=1;" vertex="1" parent="1">
          <mxGeometry x="643.25" y="820" width="130" height="80" as="geometry" />
        </mxCell>
        <mxCell id="3P8sc-XmkoWIavLkZpjN-53" value="打印重试续期失败日志，订阅日志告警，告警级别为严重" style="rounded=0;whiteSpace=wrap;html=1;" vertex="1" parent="1">
          <mxGeometry x="649.25" y="942" width="120" height="60" as="geometry" />
        </mxCell>
        <mxCell id="3P8sc-XmkoWIavLkZpjN-61" style="edgeStyle=orthogonalEdgeStyle;rounded=0;orthogonalLoop=1;jettySize=auto;html=1;entryX=-0.011;entryY=0.464;entryDx=0;entryDy=0;entryPerimeter=0;" edge="1" parent="1" source="3P8sc-XmkoWIavLkZpjN-44" target="3P8sc-XmkoWIavLkZpjN-31">
          <mxGeometry relative="1" as="geometry" />
        </mxCell>
        <mxCell id="3P8sc-XmkoWIavLkZpjN-62" value="发送tt提醒续期成功" style="rounded=0;whiteSpace=wrap;html=1;" vertex="1" parent="1">
          <mxGeometry x="260" y="460" width="120" height="60" as="geometry" />
        </mxCell>
        <mxCell id="3P8sc-XmkoWIavLkZpjN-65" style="edgeStyle=orthogonalEdgeStyle;rounded=0;orthogonalLoop=1;jettySize=auto;html=1;entryX=0;entryY=0.5;entryDx=0;entryDy=0;" edge="1" parent="1" source="3P8sc-XmkoWIavLkZpjN-64" target="3P8sc-XmkoWIavLkZpjN-23">
          <mxGeometry relative="1" as="geometry" />
        </mxCell>
        <mxCell id="3P8sc-XmkoWIavLkZpjN-64" value="定时任务:12小时&lt;div&gt;全表扫描，还在生效中续期实验，redis zset更新score&lt;/div&gt;&lt;div&gt;(避免redis故障或其他原因导致数据丢失)&lt;/div&gt;" style="shape=process;whiteSpace=wrap;html=1;backgroundOutline=1;" vertex="1" parent="1">
          <mxGeometry x="390" y="240" width="200" height="80" as="geometry" />
        </mxCell>
      </root>
    </mxGraphModel>
  </diagram>
</mxfile>
